<?xml version="1.0" encoding="UTF-8" standalone="no"?>
<!-- Created with Inkscape (http://www.inkscape.org/) -->

<svg
   version="1.1"
   id="svg2"
   width="4800"
   height="4800"
   viewBox="0 0 4800 4800"
   sodipodi:docname="DOGE-vector.eps"
   xmlns:inkscape="http://www.inkscape.org/namespaces/inkscape"
   xmlns:sodipodi="http://sodipodi.sourceforge.net/DTD/sodipodi-0.dtd"
   xmlns="http://www.w3.org/2000/svg"
   xmlns:svg="http://www.w3.org/2000/svg">
  <defs
     id="defs6" />
  <sodipodi:namedview
     id="namedview4"
     pagecolor="#ffffff"
     bordercolor="#000000"
     borderopacity="0.25"
     inkscape:showpageshadow="2"
     inkscape:pageopacity="0.0"
     inkscape:pagecheckerboard="0"
     inkscape:deskcolor="#d1d1d1" />
  <g
     id="g8"
     inkscape:groupmode="layer"
     inkscape:label="ink_ext_XXXXXX"
     transform="matrix(1.3333333,0,0,-1.3333333,0,4800)">
    <g
       id="g10"
       transform="scale(0.1)">
      <path
         d="M 0,36000 H 36000 V 0 H 0 v 36000"
         style="fill:#ffffff;fill-opacity:1;fill-rule:evenodd;stroke:none"
         id="path12" />
      <path
         d="m 11953.3,19335.4 c -488.9,469.7 -808.9,1166 -1034.6,1911.2 -247.1,815.5 -381.4,1689.6 -500.9,2389.5 -70.5,339.7 -140.5,679.2 -208.8,1019.3 -63.3,315 -71.4,442 311.5,353.4 1591.3,-367.9 2462,-2812.3 3948.5,-2154 -1532,666.1 -2789,2885.8 -4579.06,2898.1 -555.78,3.8 -538.83,-206.2 -409.4,-682.2 206.03,-757.7 359.92,-1365.6 493.64,-2148.8 132.02,-699.9 229.22,-1325.6 401.62,-1907.2 209.9,-708.5 531.5,-1351.6 1163.8,-1983.9 370.5,-301.1 691.9,-446.8 910.2,-367.3 114.9,41.9 201.2,146.2 251.1,323 130.9,464.1 88.9,1088.2 255.5,1672.6 99.7,350.2 244,673.2 506.3,1167 -956.3,-841.5 -1042.4,-1128.7 -1163.9,-2331.7 -24,-238.4 -97,-397.8 -345.5,-159"
         style="fill:#000000;fill-opacity:1;fill-rule:evenodd;stroke:none"
         id="path14" />
      <path
         d="m 17986.8,23325.3 c 453.7,305.8 1012.6,547.5 1569.6,366.2 863,-280.9 1358.4,-1585.2 2419.3,-1784.1 290.7,-54.5 531.6,49.9 996.4,308.1 534.2,440.5 762.5,693.6 1118.2,1286.3 -629.8,57.3 -1202.6,273.8 -1713,655.2 -851.9,636.4 -1579,2032 -2751.2,2041.8 -1686.8,13.9 -2348.7,-1957.4 -2839,-3213.7 333.9,1526 1022,3718.8 2897.8,3773.8 1277.2,37.4 2105.3,-1359.6 2981.2,-2088.4 582.4,-484.7 985.2,-589.6 1692.9,-635.9 221.5,-14.4 434.3,-46.1 475.3,-120 49.8,-89.4 -7.1,-277.4 -96.9,-478.8 -407.9,-914.7 -1645.9,-2130.8 -2705.4,-2069.7 -1226.3,70.7 -1685.1,1657.8 -2521.4,2132.8 -487.4,276.9 -1062.2,36.9 -1523.8,-173.6"
         style="fill:#000000;fill-opacity:1;fill-rule:evenodd;stroke:none"
         id="path16" />
      <path
         d="m 16787.1,22985.1 c -383.1,-1669.4 377.2,-3945.5 2240.7,-3999.9 1498.2,-43.8 1989.3,1565.3 2068.1,2790.5 -603.3,521.7 -1002.7,1392.3 -1585.3,1723.2 -487.4,276.9 -1062.2,36.9 -1523.8,-173.6 453.7,305.8 1012.6,547.5 1569.6,366.2 863,-280.9 1358.4,-1585.2 2419.3,-1784.1 290.7,-54.5 531.6,49.9 996.4,308.1 534.2,440.5 762.5,693.6 1118.2,1286.3 -629.8,57.3 -1202.6,273.8 -1713,655.2 -851.9,636.4 -1579,2032 -2751.2,2041.8 -1686.8,13.9 -2348.7,-1957.4 -2839,-3213.7"
         style="fill:#fcb041;fill-opacity:1;fill-rule:evenodd;stroke:none"
         id="path18" />
      <path
         d="m 18699.3,20827 c 347,0 628.3,-281.3 628.3,-628.2 0,-347 -281.3,-628.3 -628.3,-628.3 -347,0 -628.3,281.3 -628.3,628.3 0,346.9 281.3,628.2 628.3,628.2"
         style="fill:#000000;fill-opacity:1;fill-rule:evenodd;stroke:none"
         id="path20" />
      <path
         d="m 18265.3,20627.2 c 148.1,0 268.1,-120 268.1,-268.1 0,-148.1 -120,-268.1 -268.1,-268.1 -148.1,0 -268.2,120 -268.2,268.1 0,148.1 120.1,268.1 268.2,268.1"
         style="fill:#ffffff;fill-opacity:1;fill-rule:evenodd;stroke:none"
         id="path22" />
      <path
         d="m 14508.8,18065.2 c 31.3,1249.5 283.1,1731.6 1579.2,1223.3 -785.9,-212.4 -1248.7,-442 -1579.2,-1223.3"
         style="fill:#000000;fill-opacity:1;fill-rule:evenodd;stroke:none"
         id="path24" />
      <path
         d="m 14891,15101.5 c 1285.2,-525.8 2611.2,-114 3007.8,1296 -435.2,75.7 -1481.3,370.6 -1436.6,939.5 31.3,399.5 821.3,761.5 1166.5,828.5 360.2,69.9 1269.4,13.3 1380.6,-431 101.2,-404.5 -585.6,-1005.9 -859,-1240.3 746,-1090.3 2557.5,-577 3210.9,454.6 -347.5,-1159 -625.2,-1627.3 -1605.5,-2543.6 183.6,-581.2 291.2,-1177.3 -64.8,-1737.4 -330.1,-519.3 -1150.5,-963.3 -1632.3,-395.2 -143.2,168.8 -184.1,442.1 -246.8,865.6 l -38.7,444.9 v 29 l -48.4,203.1 c -1108.2,38.9 -2031.2,522 -2833.7,1286.3 z m 1995.5,2454.6 c 315.4,351.1 1031.6,635.5 1769.6,355.8 -668.9,70.4 -1170.3,-100.3 -1769.6,-355.8 z m 305.6,-2806.7 c 587,255.2 1240.3,284.6 1528.2,-410.1 84.8,-204.5 94.4,-429.2 119.7,-767.7 532.1,709.5 -418.7,1340.6 -312.5,1603.7 85,210.4 574.7,222.9 716.5,5.9 29.4,-45 405.6,-1243.9 406,-1245.5 102.4,-420.5 102.2,-839 -210.7,-1240.4 -292.3,-374.9 -1059.6,-672.1 -1305.4,-129.6 -64.9,143.2 -127.8,998.6 -188.4,1249.1 -99.2,410.2 -291,768.6 -753.4,934.6"
         style="fill:#000000;fill-opacity:1;fill-rule:evenodd;stroke:none"
         id="path26" />
      <path
         d="m 14486.8,14834.4 c 58,449.1 182.1,777.5 716.5,649.2 -430.2,-111 -511,-277.5 -716.5,-649.2"
         style="fill:#000000;fill-opacity:1;fill-rule:evenodd;stroke:none"
         id="path28" />
      <path
         d="m 20912.8,17204.8 c 471.8,321.7 771.9,65.2 873.8,-431.4 -185.5,323.9 -465.6,484.3 -873.8,431.4"
         style="fill:#000000;fill-opacity:1;fill-rule:evenodd;stroke:none"
         id="path30" />
      <path
         d="m 12416.5,10171.4 c -445.1,-62 -931,-33.6 -1197.6,400.6 -150.6,245.3 -210.6,509.6 -202.8,774.4 49.5,1678.1 1702.6,2229.1 2960,2356.1 -1576.3,-12 -3217.7,-480.7 -3454.2,-2342.8 -55.2,-434.8 30.7,-877 313.7,-1266.2 454.5,-625.32 1265.7,-771.27 1934,-437.11 854.7,-610.45 1978.8,-578.98 2633.7,294.26 672.2,162.95 1406.1,562.45 1469.8,1335.55 88.2,1071 -849,1839.5 -1675.8,2328 493.2,-556.4 1400.8,-1463.3 1194,-2302.2 -88.1,-357.3 -419,-594.6 -708.5,-787.5 72.7,1090.2 -290.3,1453.6 -1118.2,2074.5 813.1,-895.6 1484.4,-2356.9 -459.3,-2625.69 -1533.6,-212.09 -1877.7,901.99 -1100.3,2095.99 -608.4,-516.9 -746.3,-1077.6 -588.5,-1897.9"
         style="fill:#000000;fill-opacity:1;fill-rule:evenodd;stroke:none"
         id="path32" />
      <path
         d="m 24889.4,11354.2 c 397.3,-55.3 830.9,-30 1068.8,357.6 134.4,218.9 188,454.8 181,691.2 -44.2,1497.6 -1519.5,1989.4 -2641.8,2102.7 1406.9,-10.7 2871.9,-429 3082.9,-2090.9 49.2,-388 -27.4,-782.7 -279.9,-1130.1 -405.7,-558.1 -1129.7,-688.3 -1726.2,-390.1 -762.7,-544.8 -1766,-516.7 -2350.5,262.7 -599.9,145.4 -1255,501.9 -1311.8,1191.9 -78.7,955.9 757.8,1641.7 1495.6,2077.8 -440.1,-496.7 -1250.1,-1306.1 -1065.6,-2054.8 78.6,-318.8 374,-530.6 632.3,-702.8 -64.9,973 259.1,1297.3 998,1851.5 -725.7,-799.4 -1324.8,-2103.5 409.9,-2343.4 1368.7,-189.3 1675.9,804.9 982,1870.7 543,-461.4 666.1,-961.8 525.3,-1694"
         style="fill:#000000;fill-opacity:1;fill-rule:evenodd;stroke:none"
         id="path34" />
      <path
         d="m 15788.2,15724.4 c 80.8,0 146.3,-65.5 146.3,-146.4 0,-80.8 -65.5,-146.3 -146.3,-146.3 -80.8,0 -146.3,65.5 -146.3,146.3 0,80.9 65.5,146.4 146.3,146.4"
         style="fill:#000000;fill-opacity:1;fill-rule:evenodd;stroke:none"
         id="path36" />
      <path
         d="m 16503.6,16289.8 c 80.8,0 146.4,-65.5 146.4,-146.4 0,-80.8 -65.6,-146.3 -146.4,-146.3 -80.8,0 -146.3,65.5 -146.3,146.3 0,80.9 65.5,146.4 146.3,146.4"
         style="fill:#000000;fill-opacity:1;fill-rule:evenodd;stroke:none"
         id="path38" />
      <path
         d="m 15710.3,16570.4 c 80.8,0 146.3,-65.6 146.3,-146.4 0,-80.8 -65.5,-146.3 -146.3,-146.3 -80.9,0 -146.4,65.5 -146.4,146.3 0,80.8 65.5,146.4 146.4,146.4"
         style="fill:#000000;fill-opacity:1;fill-rule:evenodd;stroke:none"
         id="path40" />
      <path
         d="m 19674.6,17473.6 c 80.8,0 146.3,-65.5 146.3,-146.3 0,-80.8 -65.5,-146.3 -146.3,-146.3 -80.8,0 -146.3,65.5 -146.3,146.3 0,80.8 65.5,146.3 146.3,146.3"
         style="fill:#000000;fill-opacity:1;fill-rule:evenodd;stroke:none"
         id="path42" />
      <path
         d="m 20459.7,17774.7 c 80.8,0 146.3,-65.5 146.3,-146.3 0,-80.8 -65.5,-146.3 -146.3,-146.3 -80.8,0 -146.3,65.5 -146.3,146.3 0,80.8 65.5,146.3 146.3,146.3"
         style="fill:#000000;fill-opacity:1;fill-rule:evenodd;stroke:none"
         id="path44" />
      <path
         d="m 20370.6,16903.2 c 80.8,0 146.3,-65.6 146.3,-146.4 0,-80.8 -65.5,-146.3 -146.3,-146.3 -80.8,0 -146.3,65.5 -146.3,146.3 0,80.8 65.5,146.4 146.3,146.4"
         style="fill:#000000;fill-opacity:1;fill-rule:evenodd;stroke:none"
         id="path46" />
    </g>
  </g>
</svg>
